# Blender v3.1.2 OBJ File: 'Sketchfab_2021_04_09_22_18_14.blend'
# www.blender.org
mtllib planeBody.mtl
o G_Plane_Mesh
v 3.385707 0.290717 0.111315
v 3.381829 0.246395 0.057680
v -0.245496 0.212416 0.216980
v -0.230909 0.379143 0.418744
v -1.195222 0.453486 0.154286
v -1.184850 0.572039 0.297752
v -1.156442 0.896741 0.359035
v -1.153435 0.931112 0.330415
v -0.186729 0.884126 0.464679
v -0.190958 0.835788 0.504929
v 3.397451 0.424957 0.123526
v 3.396327 0.412107 0.134226
v 0.197837 1.408015 0.316327
v 2.100188 0.770872 0.237066
v 1.736252 0.097557 0.146603
v 1.073497 0.111017 0.182408
v 0.413393 0.154771 0.216980
v 0.472160 0.826481 0.464679
v 1.131049 0.768835 0.390641
v 1.789938 0.711190 0.313961
v 0.427980 0.321498 0.418744
v 1.088084 0.277744 0.352024
v 1.750839 0.264284 0.282925
v 1.785709 0.662852 0.341156
v 1.126820 0.720498 0.424477
v 0.467931 0.778143 0.504929
v 0.673425 1.248729 0.316327
v 1.149012 1.089443 0.265926
v 1.624600 0.930157 0.213727
v -0.262004 0.580934 0.384687
v 0.664598 0.499867 0.384687
v -0.250407 0.713490 0.384687
v 0.676195 0.632423 0.384687
v 0.451737 0.555162 3.235415
v 0.400399 0.561355 3.293317
v 0.405332 0.617747 3.293317
v 0.456966 0.614931 3.235415
v 0.069215 0.648855 3.235415
v 0.120553 0.642662 3.293317
v 0.115619 0.586270 3.293317
v 0.063986 0.589086 3.235415
v 0.536344 0.631485 1.483065
v 0.474573 0.626532 2.346700
v -0.107012 0.677469 2.342054
v -0.196801 0.695653 1.480870
v 0.527035 0.525075 1.483065
v 0.467063 0.540680 2.346663
v -0.114533 0.591507 2.342053
v -0.206063 0.589199 1.481892
v 2.926746 0.301955 0.029166
v 3.361153 0.263949 0.029166
v 2.938343 0.434511 0.029166
v 3.372750 0.396505 0.029166
v 3.341008 0.302383 1.080823
v 3.289671 0.308576 1.138724
v 3.294604 0.364968 1.138724
v 3.346237 0.362153 1.080823
v 2.958487 0.396076 1.080823
v 3.009825 0.389883 1.138724
v 3.004891 0.333491 1.138724
v 2.953258 0.336307 1.080823
v 2.952418 0.439051 0.050663
v 3.394637 0.400362 0.050663
v 3.127398 1.209891 0.013662
v 3.445199 1.182087 0.018891
v 3.405508 0.568433 0.050663
v 2.990039 0.604782 0.036640
v 2.463117 0.482212 0.050663
v 2.500738 0.647943 0.050663
v -1.195222 0.453486 -0.154286
v -0.245496 0.212416 -0.216980
v -1.153435 0.931112 -0.330415
v -0.186729 0.884126 -0.464679
v -1.184850 0.572039 -0.297752
v -0.230909 0.379143 -0.418744
v -0.190958 0.835788 -0.504929
v -1.156442 0.896741 -0.359035
v 3.385707 0.290717 -0.111315
v 3.396327 0.412107 -0.134226
v 0.673425 1.248729 -0.316327
v 1.149012 1.089443 -0.265926
v 0.427980 0.321498 -0.418744
v 1.088084 0.277744 -0.352024
v 1.126820 0.720498 -0.424477
v 0.467931 0.778143 -0.504929
v 0.413393 0.154771 -0.216980
v 1.073497 0.111017 -0.182408
v 3.381829 0.246395 -0.057680
v 1.789938 0.711190 -0.313961
v 1.131049 0.768835 -0.390641
v 1.785709 0.662852 -0.341156
v 0.472160 0.826481 -0.464679
v 3.397451 0.424957 -0.123526
v 2.100188 0.770872 -0.237066
v 1.624600 0.930157 -0.213727
v 1.750839 0.264284 -0.282925
v 1.736252 0.097557 -0.146603
v 0.197837 1.408015 -0.316327
v 0.115619 0.586270 -3.293317
v 0.063986 0.589085 -3.235415
v 0.451737 0.555162 -3.235415
v 0.400399 0.561355 -3.293317
v 0.069215 0.648855 -3.235415
v 0.456966 0.614931 -3.235415
v 0.474573 0.626531 -2.346700
v -0.107012 0.677469 -2.342054
v 0.405332 0.617747 -3.293317
v 0.120553 0.642662 -3.293317
v 0.467063 0.540679 -2.346663
v -0.262004 0.580934 -0.384687
v -0.206063 0.589199 -1.481892
v -0.196801 0.695653 -1.480870
v -0.250407 0.713490 -0.384687
v -0.114533 0.591507 -2.342053
v 0.536344 0.631485 -1.483065
v 0.676195 0.632423 -0.384687
v 0.527035 0.525075 -1.483065
v 0.664598 0.499867 -0.384687
v 3.004891 0.333491 -1.138724
v 2.953258 0.336307 -1.080823
v 3.341008 0.302383 -1.080823
v 3.289671 0.308576 -1.138724
v 2.958487 0.396076 -1.080823
v 3.346237 0.362152 -1.080823
v 3.372750 0.396505 -0.029166
v 2.938343 0.434511 -0.029166
v 3.294604 0.364968 -1.138724
v 3.009825 0.389883 -1.138724
v 3.361153 0.263949 -0.029166
v 2.926746 0.301955 -0.029166
v 2.952418 0.439051 -0.050663
v 3.394637 0.400362 -0.050663
v 3.405508 0.568433 -0.050663
v 2.990039 0.604782 -0.036640
v 3.445199 1.182087 -0.018892
v 3.127398 1.209891 -0.013662
v 2.500738 0.647943 -0.050663
v 2.463117 0.482212 -0.050663
v 0.512971 0.848633 0.450697
v 1.105762 0.797361 0.385897
v 1.120736 1.071453 0.276452
v 0.688508 1.216815 0.323884
v 1.158961 0.790615 0.374654
v 1.738227 0.741374 0.310243
v 1.608116 0.909761 0.226729
v 1.174598 1.056097 0.276467
v 0.635915 1.233228 0.322685
v 0.208581 1.376888 0.324479
v -0.136949 0.905803 0.455932
v 0.455252 0.854505 0.457728
v -0.170553 0.906163 0.430399
v 0.181661 1.385978 0.294528
v 0.181661 1.385978 -0.294528
v -0.170553 0.906163 -0.430399
v 0.512971 0.848633 -0.450697
v 0.688508 1.216815 -0.323884
v 1.120736 1.071453 -0.276452
v 1.105762 0.797361 -0.385897
v 1.158961 0.790615 -0.374654
v 1.174598 1.056097 -0.276467
v 1.608116 0.909761 -0.226729
v 1.738227 0.741374 -0.310243
v 0.635915 1.233228 -0.322685
v 0.455252 0.854504 -0.457728
v -0.136949 0.905803 -0.455932
v 0.208581 1.376888 -0.324479
v 0.511598 0.846076 0.442639
v 1.104390 0.794804 0.377839
v 1.119363 1.068897 0.268394
v 0.687135 1.214258 0.315826
v 1.157408 0.787016 0.367039
v 1.736674 0.737775 0.302628
v 1.606562 0.906162 0.219114
v 1.173045 1.052498 0.268852
v 0.635473 1.230919 0.314449
v 0.208139 1.374579 0.316243
v -0.137391 0.903494 0.447696
v 0.454810 0.852195 0.449492
v -0.163649 0.901095 0.430399
v 0.188565 1.380910 0.294528
v 0.188565 1.380910 -0.294528
v -0.163649 0.901095 -0.430399
v 0.511598 0.846076 -0.442639
v 0.687135 1.214258 -0.315826
v 1.119363 1.068897 -0.268394
v 1.104390 0.794804 -0.377839
v 1.157408 0.787016 -0.367039
v 1.173045 1.052498 -0.268852
v 1.606562 0.906162 -0.219114
v 1.736674 0.737775 -0.302628
v 0.635473 1.230919 -0.314449
v 0.454810 0.852195 -0.449492
v -0.137391 0.903494 -0.447696
v 0.208139 1.374579 -0.316244
vt 0.693155 0.513791
vt 0.706364 0.487246
vt 0.706364 0.487246
vt 0.693155 0.513790
vt 0.703483 0.295754
vt 0.706089 0.468916
vt 0.692959 0.500757
vt 0.691106 0.377628
vt 0.719944 0.618060
vt 0.725830 0.553257
vt 0.725830 0.553257
vt 0.719944 0.618060
vt 0.721339 0.245366
vt 0.723865 0.413260
vt 0.714977 0.441088
vt 0.712371 0.267926
vt 0.690429 0.332672
vt 0.702531 0.232530
vt 0.720387 0.182142
vt 0.711420 0.204702
vt 0.753041 0.212834
vt 0.753041 0.212834
vt 0.753294 0.229641
vt 0.753294 0.229641
vt 0.724141 0.431590
vt 0.732754 0.385432
vt 0.733029 0.403762
vt 0.950914 0.345950
vt 0.964714 0.462507
vt 0.953949 0.530518
vt 0.929026 0.376137
vt 0.692959 0.500757
vt 0.731718 0.488454
vt 0.737604 0.423652
vt 0.737604 0.423652
vt 0.731718 0.488454
vt 0.753987 0.275673
vt 0.730479 0.234293
vt 0.729528 0.171069
vt 0.715253 0.459418
vt 0.754060 0.280545
vt 0.952718 0.341886
vt 0.974148 0.312754
vt 0.976902 0.386321
vt 0.966131 0.454765
vt 0.941981 0.605559
vt 0.905125 0.409733
vt 0.926988 0.379543
vt 0.952627 0.538343
vt 0.778903 0.466066
vt 0.807759 0.330636
vt 0.803981 0.353914
vt 0.782787 0.453379
vt 0.780784 0.653499
vt 0.809641 0.518069
vt 0.811277 0.553214
vt 0.767996 0.756519
vt 0.805756 0.530756
vt 0.784563 0.630221
vt 0.808574 0.283986
vt 0.758223 0.486497
vt 0.761570 0.820336
vt 0.757906 0.880372
vt 0.753733 0.464683
vt 0.765290 0.486947
vt 0.816131 0.564188
vt 0.826865 0.556737
vt 0.822692 0.141049
vt 0.812781 0.230492
vt 0.747286 0.276309
vt 0.811363 0.244632
vt 0.802973 0.250076
vt 0.755912 0.273341
vt 0.815541 0.288473
vt 0.821940 0.313261
vt 0.750153 0.348750
vt 0.751464 0.320150
vt 0.806915 0.291440
vt 0.759854 0.314705
vt 0.812674 0.216031
vt 0.740887 0.251520
vt 0.835918 0.315716
vt 0.847015 0.439062
vt 0.778357 0.473004
vt 0.762840 0.351842
vt 0.887532 0.889421
vt 0.835014 0.915383
vt 0.697518 0.513236
vt 0.682000 0.392075
vt 0.691106 0.377628
vt 0.690429 0.332672
vt 0.941482 0.608532
vt 0.941482 0.608532
vt 0.903931 0.409080
vt 0.903931 0.409080
vt 0.835918 0.315716
vt 0.847015 0.439062
vt 0.702531 0.232530
vt 0.706089 0.468916
vt 0.703483 0.295754
vt 0.753987 0.275673
vt 0.714977 0.441088
vt 0.723865 0.413260
vt 0.721339 0.245366
vt 0.712371 0.267926
vt 0.720387 0.182142
vt 0.711420 0.204702
vt 0.732754 0.385432
vt 0.724141 0.431590
vt 0.733029 0.403762
vt 0.953949 0.530518
vt 0.964714 0.462507
vt 0.950914 0.345950
vt 0.929026 0.376137
vt 0.754060 0.280545
vt 0.730479 0.234293
vt 0.729528 0.171069
vt 0.715253 0.459418
vt 0.952718 0.341886
vt 0.966131 0.454765
vt 0.976902 0.386321
vt 0.974148 0.312754
vt 0.926988 0.379543
vt 0.905125 0.409733
vt 0.941981 0.605559
vt 0.952627 0.538343
vt 0.803980 0.353911
vt 0.807759 0.330633
vt 0.778902 0.466063
vt 0.782787 0.453376
vt 0.780784 0.653496
vt 0.767996 0.756517
vt 0.811277 0.553211
vt 0.809641 0.518066
vt 0.784562 0.630218
vt 0.805756 0.530753
vt 0.808574 0.283984
vt 0.757906 0.880371
vt 0.761570 0.820334
vt 0.758222 0.486496
vt 0.753733 0.464683
vt 0.765290 0.486945
vt 0.816130 0.564186
vt 0.826865 0.556737
vt 0.822692 0.141049
vt 0.812780 0.230491
vt 0.802973 0.250076
vt 0.811363 0.244632
vt 0.747286 0.276309
vt 0.755912 0.273341
vt 0.750153 0.348750
vt 0.821940 0.313261
vt 0.815541 0.288472
vt 0.751464 0.320149
vt 0.759854 0.314705
vt 0.806915 0.291440
vt 0.812674 0.216031
vt 0.740887 0.251520
vt 0.778357 0.473004
vt 0.762840 0.351842
vt 0.835014 0.915383
vt 0.887532 0.889421
vt 0.682000 0.392075
vt 0.697518 0.513236
vt 0.714056 0.682862
vt 0.714057 0.682862
vt 0.723918 0.442657
vt 0.715919 0.467469
vt 0.725357 0.546675
vt 0.720010 0.605797
vt 0.732447 0.415697
vt 0.724626 0.439615
vt 0.731397 0.480852
vt 0.726036 0.540356
vt 0.714066 0.670938
vt 0.719353 0.612506
vt 0.707153 0.495036
vt 0.715144 0.470219
vt 0.713733 0.674634
vt 0.706688 0.495474
vt 0.713733 0.674634
vt 0.706688 0.495474
vt 0.720010 0.605797
vt 0.715919 0.467469
vt 0.725357 0.546675
vt 0.723918 0.442657
vt 0.726036 0.540356
vt 0.724626 0.439615
vt 0.731397 0.480852
vt 0.732447 0.415697
vt 0.715144 0.470219
vt 0.719353 0.612506
vt 0.707153 0.495035
vt 0.714066 0.670938
vt 0.723888 0.441698
vt 0.715888 0.466510
vt 0.725327 0.545716
vt 0.719979 0.604838
vt 0.732409 0.414343
vt 0.724589 0.438262
vt 0.731359 0.479498
vt 0.725998 0.539002
vt 0.714049 0.670064
vt 0.719337 0.611633
vt 0.707136 0.494162
vt 0.715127 0.469345
vt 0.713806 0.672646
vt 0.706761 0.493486
vt 0.713806 0.672646
vt 0.706761 0.493486
vt 0.719979 0.604838
vt 0.715888 0.466510
vt 0.725327 0.545716
vt 0.723888 0.441698
vt 0.725998 0.539002
vt 0.724589 0.438262
vt 0.731359 0.479498
vt 0.732409 0.414343
vt 0.715127 0.469345
vt 0.719337 0.611633
vt 0.707136 0.494162
vt 0.714049 0.670064
vn 0.0485 0.9988 -0.0000
vn -0.1577 -0.1698 0.9728
vn 0.3176 0.9482 0.0000
vn 0.0953 -0.1810 0.9789
vn -0.2299 -0.7420 0.6298
vn 0.0019 -0.7442 0.6680
vn 0.9962 -0.0872 0.0000
vn -0.0748 0.6419 0.7631
vn 0.1476 0.5187 0.8421
vn 0.1603 0.2985 0.9408
vn -0.9962 0.0872 -0.0000
vn 0.1033 -0.1622 0.9813
vn 0.1039 -0.1619 0.9813
vn 0.1045 -0.1616 0.9813
vn -0.0161 -0.1841 0.9828
vn 0.0943 -0.6706 0.7358
vn 0.0443 -0.6775 0.7342
vn -0.0671 -0.7667 0.6384
vn 0.0556 0.6360 0.7697
vn 0.1447 0.5939 0.7914
vn 0.1883 0.5051 0.8422
vn 0.1539 0.3769 0.9134
vn 0.1814 0.4202 0.8891
vn 0.0516 0.2696 0.9616
vn -0.0871 -0.9958 0.0293
vn 0.0871 0.9961 0.0147
vn 0.0871 0.9961 0.0133
vn 0.0871 0.9961 0.0141
vn 0.0000 0.0000 1.0000
vn 0.9960 -0.0871 0.0186
vn -0.9949 0.0870 0.0501
vn 0.7432 -0.0650 0.6659
vn -0.7432 0.0650 0.6659
vn 0.0871 0.9958 0.0293
vn -0.0872 -0.9961 0.0147
vn -0.0872 -0.9961 0.0145
vn -0.0872 -0.9961 0.0133
vn 0.0871 0.9961 0.0119
vn 0.9883 -0.0865 0.1258
vn -0.9770 0.0855 0.1955
vn -0.0871 -0.9961 0.0119
vn 0.9937 -0.0869 0.0706
vn -0.9906 0.0870 0.1052
vn -0.0871 -0.9957 0.0300
vn 0.0871 0.9957 0.0300
vn 0.0871 0.9956 0.0347
vn 0.9959 -0.0871 0.0223
vn -0.9959 0.0871 0.0223
vn -0.0871 -0.9956 0.0347
vn -0.0125 0.0438 0.9990
vn -0.0172 0.0459 0.9988
vn -0.0216 0.0479 0.9986
vn -0.0220 0.0481 0.9986
vn 0.0177 0.0383 0.9991
vn -0.8061 0.5917 0.0000
vn 0.9979 -0.0645 0.0000
vn -0.2460 -0.9693 0.0000
vn -0.1577 -0.1698 -0.9728
vn 0.0953 -0.1810 -0.9789
vn -0.2299 -0.7420 -0.6298
vn 0.0019 -0.7442 -0.6680
vn -0.0748 0.6419 -0.7631
vn 0.1476 0.5187 -0.8421
vn 0.1603 0.2985 -0.9408
vn 0.2576 0.9662 0.0000
vn -0.0872 -0.9962 0.0000
vn 0.1039 -0.1619 -0.9813
vn 0.1033 -0.1622 -0.9813
vn 0.1045 -0.1616 -0.9813
vn -0.0161 -0.1841 -0.9828
vn 0.0943 -0.6706 -0.7358
vn 0.0443 -0.6775 -0.7342
vn -0.0671 -0.7667 -0.6384
vn 0.0556 0.6360 -0.7697
vn 0.1447 0.5939 -0.7914
vn 0.1883 0.5051 -0.8422
vn 0.1539 0.3769 -0.9134
vn 0.1814 0.4202 -0.8891
vn 0.0516 0.2696 -0.9616
vn -0.0871 -0.9958 -0.0293
vn 0.0871 0.9961 -0.0147
vn 0.0871 0.9961 -0.0142
vn 0.0871 0.9961 -0.0133
vn 0.0000 0.0000 -1.0000
vn 0.9960 -0.0871 -0.0186
vn -0.9949 0.0870 -0.0501
vn 0.7432 -0.0650 -0.6659
vn -0.7432 0.0650 -0.6659
vn 0.0871 0.9958 -0.0293
vn -0.0872 -0.9961 -0.0147
vn -0.0872 -0.9961 -0.0133
vn -0.0872 -0.9961 -0.0145
vn 0.0871 0.9961 -0.0119
vn 0.9883 -0.0865 -0.1258
vn -0.9770 0.0855 -0.1955
vn -0.0871 -0.9961 -0.0119
vn 0.9937 -0.0869 -0.0706
vn -0.9906 0.0870 -0.1052
vn -0.0871 -0.9957 -0.0300
vn 0.0871 0.9956 -0.0347
vn 0.0871 0.9957 -0.0300
vn 0.9959 -0.0871 -0.0223
vn -0.9959 0.0871 -0.0223
vn -0.0871 -0.9956 -0.0347
vn -0.0216 0.0479 -0.9986
vn -0.0172 0.0459 -0.9988
vn -0.0125 0.0438 -0.9990
vn -0.0220 0.0481 -0.9986
vn 0.0177 0.0383 -0.9991
vn 0.0879 0.9961 0.0000
vn -0.0661 -0.9978 0.0000
vn 0.9962 -0.0871 0.0000
vn 0.0901 -0.9959 0.0000
vn -0.0203 -0.9998 0.0000
vn 0.0872 0.9962 0.0000
vn -0.9752 0.2214 0.0000
vn 0.1313 0.3080 0.9423
vn 0.1684 0.3475 0.9224
vn 0.1681 0.3427 0.9243
vn 0.1688 0.3530 0.9203
vn 0.1975 0.2874 0.9372
vn 0.1547 0.2582 0.9536
vn 0.1380 0.4058 0.9035
vn 0.1889 0.5348 0.8236
vn 0.2403 0.4234 0.8735
vn 0.1681 0.3420 0.9246
vn 0.0860 0.2507 0.9642
vn 0.0468 0.2385 0.9700
vn 0.0236 0.2869 0.9577
vn 0.0603 0.3072 0.9497
vn 0.1547 0.2582 -0.9536
vn 0.1975 0.2874 -0.9372
vn 0.1681 0.3427 -0.9243
vn 0.1684 0.3475 -0.9224
vn 0.1688 0.3530 -0.9203
vn 0.1313 0.3080 -0.9423
vn 0.1681 0.3420 -0.9246
vn 0.2403 0.4234 -0.8735
vn 0.1889 0.5348 -0.8236
vn 0.1380 0.4058 -0.9035
vn 0.0603 0.3072 -0.9497
vn 0.0236 0.2869 -0.9577
vn 0.0468 0.2385 -0.9700
vn 0.0860 0.2507 -0.9642
vn 0.0483 0.9497 -0.3096
vn -0.9852 0.1072 0.1338
vn -0.2676 -0.9043 0.3325
vn 0.9005 -0.4347 -0.0155
vn 0.0286 0.9015 -0.4319
vn -0.8142 -0.4429 0.3754
vn -0.2377 -0.8586 0.4543
vn 0.9827 -0.1124 -0.1473
vn -0.3056 -0.9124 0.2722
vn 0.8160 -0.5664 0.1151
vn 0.0838 0.9583 -0.2732
vn -0.9096 0.4103 -0.0663
vn -0.1317 -0.1794 -0.9749
vn -0.5917 -0.8061 0.0000
vn -0.1317 -0.1794 0.9749
vn 0.5917 0.8061 0.0000
vn 0.9005 -0.4347 0.0155
vn -0.2676 -0.9043 -0.3325
vn -0.9852 0.1072 -0.1338
vn 0.0483 0.9497 0.3096
vn 0.9827 -0.1124 0.1473
vn -0.2377 -0.8586 -0.4543
vn -0.8142 -0.4429 -0.3754
vn 0.0286 0.9015 0.4319
vn -0.9096 0.4103 0.0663
vn 0.0838 0.9583 0.2732
vn 0.8160 -0.5664 -0.1151
vn -0.3056 -0.9124 -0.2722
usemtl MAT_Base
s 1
f 8/1/1 9/2/1 73/3/1 72/4/1
f 4/5/2 10/6/2 7/7/2 6/8/2
f 27/9/3 28/10/3 81/11/3 80/12/3
f 22/13/4 25/14/4 26/15/4 21/16/4
f 5/17/5 3/18/5 4/5/5 6/8/5
f 16/19/6 22/13/6 21/16/6 17/20/6
f 2/21/7 88/22/7 78/23/7 1/24/7
f 9/2/8 8/1/8 7/7/8 10/6/8
f 19/25/9 25/14/9 24/26/9 20/27/9
f 168/28/10 169/29/10 170/30/10 167/31/10
f 8/1/11 72/4/11 77/32/11 7/7/11
f 29/33/3 14/34/3 94/35/3 95/36/3
f 29/33/3 95/36/3 81/11/3 28/10/3
f 1/24/12 12/37/12 24/26/13 23/38/13
f 23/38/13 24/26/13 25/14/14 22/13/14
f 10/6/15 4/5/15 21/16/15 26/15/15
f 2/21/16 1/24/16 23/38/16 15/39/16
f 15/39/17 23/38/17 22/13/17 16/19/17
f 4/5/18 3/18/18 17/20/18 21/16/18
f 9/2/19 10/6/19 26/15/19 18/40/19
f 18/40/20 26/15/20 25/14/20 19/25/20
f 12/37/21 11/41/21 20/27/21 24/26/21
f 20/27/22 11/41/22 14/34/22 29/33/22
f 171/42/23 172/43/23 173/44/23 174/45/23
f 176/46/24 177/47/24 178/48/24 175/49/24
f 41/50/25 34/51/25 35/52/25 40/53/25
f 38/54/26 37/55/26 43/56/27 44/57/28
f 35/52/29 36/58/29 39/59/29 40/53/29
f 47/60/30 43/56/30 37/55/30 34/51/30
f 49/61/31 45/62/31 32/63/31 30/64/31
f 36/58/32 35/52/32 34/51/32 37/55/32
f 40/53/33 39/59/33 38/54/33 41/50/33
f 39/59/34 36/58/34 37/55/34 38/54/34
f 41/50/35 48/65/36 47/60/37 34/51/35
f 42/66/38 33/67/38 32/63/38 45/62/38
f 31/68/39 33/67/39 42/66/39 46/69/39
f 41/50/40 38/54/40 44/57/40 48/65/40
f 30/64/41 31/68/41 46/69/41 49/61/41
f 44/57/28 43/56/27 42/66/38 45/62/38
f 43/56/42 47/60/42 46/69/42 42/66/42
f 45/62/43 49/61/43 48/65/43 44/57/43
f 47/60/37 48/65/36 49/61/41 46/69/41
f 61/70/44 54/71/44 55/72/25 60/73/25
f 57/74/45 53/75/46 52/76/46 58/77/45
f 55/72/29 56/78/29 59/79/29 60/73/29
f 51/80/47 53/75/47 57/74/47 54/71/47
f 61/70/48 58/77/48 52/76/48 50/81/48
f 56/78/32 55/72/32 54/71/32 57/74/32
f 60/73/33 59/79/33 58/77/33 61/70/33
f 59/79/34 56/78/34 57/74/45 58/77/45
f 61/70/44 50/81/49 51/80/49 54/71/44
f 63/82/50 66/83/51 67/84/52 62/85/50
f 66/83/51 65/86/53 64/87/53 67/84/52
f 62/85/54 67/84/54 69/88/54 68/89/54
f 6/8/11 7/7/11 77/32/11 74/90/11
f 5/17/11 6/8/11 74/90/11 70/91/11
f 180/92/55 181/93/55 182/94/55 179/95/55
f 66/83/56 63/82/56 132/96/56 133/97/56
f 70/91/57 71/98/57 3/18/57 5/17/57
f 77/32/58 76/99/58 75/100/58 74/90/58
f 78/23/7 79/101/7 12/37/7 1/24/7
f 85/102/59 84/103/59 83/104/59 82/105/59
f 70/91/60 74/90/60 75/100/60 71/98/60
f 82/105/61 83/104/61 87/106/61 86/107/61
f 73/3/62 76/99/62 77/32/62 72/4/62
f 91/108/63 84/103/63 90/109/63 89/110/63
f 184/111/64 185/112/64 186/113/64 183/114/64
f 94/35/65 14/34/65 11/41/65 93/115/65
f 17/20/66 3/18/66 71/98/66 86/107/66
f 91/108/67 79/101/68 78/23/68 96/116/67
f 84/103/69 91/108/67 96/116/67 83/104/69
f 82/105/70 75/100/70 76/99/70 85/102/70
f 96/116/71 78/23/71 88/22/71 97/117/71
f 83/104/72 96/116/72 97/117/72 87/106/72
f 86/107/73 71/98/73 75/100/73 82/105/73
f 85/102/74 76/99/74 73/3/74 92/118/74
f 84/103/75 85/102/75 92/118/75 90/109/75
f 89/110/76 93/115/76 79/101/76 91/108/76
f 89/110/77 95/36/77 94/35/77 93/115/77
f 187/119/78 188/120/78 189/121/78 190/122/78
f 192/123/79 193/124/79 194/125/79 191/126/79
f 102/127/80 101/128/80 100/129/80 99/130/80
f 103/131/81 106/132/82 105/133/83 104/134/81
f 108/135/84 107/136/84 102/127/84 99/130/84
f 104/134/85 105/133/85 109/137/85 101/128/85
f 113/138/86 112/139/86 111/140/86 110/141/86
f 107/136/87 104/134/87 101/128/87 102/127/87
f 99/130/88 100/129/88 103/131/88 108/135/88
f 104/134/89 107/136/89 108/135/89 103/131/89
f 100/129/90 101/128/90 109/137/91 114/142/92
f 115/143/93 112/139/93 113/138/93 116/144/93
f 115/143/94 116/144/94 118/145/94 117/146/94
f 106/132/95 103/131/95 100/129/95 114/142/95
f 117/146/96 118/145/96 110/141/96 111/140/96
f 106/132/82 112/139/93 115/143/93 105/133/83
f 105/133/97 115/143/97 117/146/97 109/137/97
f 112/139/98 106/132/98 114/142/98 111/140/98
f 109/137/91 117/146/96 111/140/96 114/142/92
f 122/147/80 121/148/99 120/149/99 119/150/80
f 126/151/100 125/152/100 124/153/101 123/154/101
f 128/155/84 127/156/84 122/147/84 119/150/84
f 124/153/102 125/152/102 129/157/102 121/148/102
f 126/151/103 123/154/103 120/149/103 130/158/103
f 127/156/87 124/153/87 121/148/87 122/147/87
f 119/150/88 120/149/88 123/154/88 128/155/88
f 124/153/101 127/156/89 128/155/89 123/154/101
f 120/149/99 121/148/99 129/157/104 130/158/104
f 134/159/105 133/97/106 132/96/107 131/160/107
f 133/97/106 134/159/105 136/161/108 135/162/108
f 131/160/109 138/163/109 137/164/109 134/159/109
f 137/164/110 69/88/110 67/84/110 134/159/110
f 17/20/111 86/107/111 87/106/111 16/19/111
f 12/37/7 79/101/7 93/115/112 11/41/112
f 15/39/113 97/117/113 88/22/113 2/21/113
f 16/19/114 87/106/114 97/117/114 15/39/114
f 27/9/3 80/12/3 98/165/3 13/166/3
f 65/86/115 135/162/115 136/161/115 64/87/115
f 64/87/116 136/161/116 134/159/116 67/84/116
f 65/86/56 66/83/56 133/97/56 135/162/56
f 18/40/117 19/25/117 140/167/117 139/168/117
f 19/25/118 28/10/119 141/169/120 140/167/120
f 28/10/121 27/9/121 142/170/121 141/169/121
f 27/9/122 18/40/122 139/168/122 142/170/122
f 19/25/123 20/27/123 144/171/123 143/172/123
f 20/27/124 29/33/124 145/173/124 144/171/124
f 29/33/125 28/10/125 146/174/125 145/173/125
f 28/10/119 19/25/118 143/172/126 146/174/126
f 27/9/127 13/166/127 148/175/127 147/176/127
f 13/166/128 9/2/128 149/177/128 148/175/128
f 9/2/129 18/40/129 150/178/129 149/177/129
f 18/40/130 27/9/130 147/176/130 150/178/130
f 9/2/55 13/166/55 152/179/55 151/180/55
f 13/166/55 98/165/55 153/181/55 152/179/55
f 98/165/55 73/3/55 154/182/55 153/181/55
f 73/3/55 9/2/55 151/180/55 154/182/55
f 92/118/131 80/12/131 156/183/131 155/184/131
f 80/12/132 81/11/132 157/185/132 156/183/132
f 81/11/133 90/109/134 158/186/135 157/185/135
f 90/109/136 92/118/136 155/184/136 158/186/136
f 90/109/134 81/11/133 160/187/137 159/188/137
f 81/11/138 95/36/138 161/189/138 160/187/138
f 95/36/139 89/110/139 162/190/139 161/189/139
f 89/110/140 90/109/140 159/188/140 162/190/140
f 80/12/141 92/118/141 164/191/141 163/192/141
f 92/118/142 73/3/142 165/193/142 164/191/142
f 73/3/143 98/165/143 166/194/143 165/193/143
f 98/165/144 80/12/144 163/192/144 166/194/144
f 139/168/145 140/167/145 168/195/145 167/196/145
f 140/167/146 141/169/146 169/197/146 168/195/146
f 141/169/147 142/170/147 170/198/147 169/197/147
f 142/170/148 139/168/148 167/196/148 170/198/148
f 143/172/149 144/171/149 172/199/149 171/200/149
f 144/171/150 145/173/150 173/201/150 172/199/150
f 145/173/151 146/174/151 174/202/151 173/201/151
f 146/174/152 143/172/152 171/200/152 174/202/152
f 147/176/153 148/175/153 176/203/153 175/204/153
f 148/175/154 149/177/154 177/205/154 176/203/154
f 149/177/155 150/178/155 178/206/155 177/205/155
f 150/178/156 147/176/156 175/204/156 178/206/156
f 151/180/157 152/179/157 180/207/157 179/208/157
f 152/179/158 153/181/158 181/209/158 180/207/158
f 153/181/159 154/182/159 182/210/159 181/209/159
f 154/182/160 151/180/160 179/208/160 182/210/160
f 155/184/161 156/183/161 184/211/161 183/212/161
f 156/183/162 157/185/162 185/213/162 184/211/162
f 157/185/163 158/186/163 186/214/163 185/213/163
f 158/186/164 155/184/164 183/212/164 186/214/164
f 159/188/165 160/187/165 188/215/165 187/216/165
f 160/187/166 161/189/166 189/217/166 188/215/166
f 161/189/167 162/190/167 190/218/167 189/217/167
f 162/190/168 159/188/168 187/216/168 190/218/168
f 163/192/169 164/191/169 192/219/169 191/220/169
f 164/191/170 165/193/170 193/221/170 192/219/170
f 165/193/171 166/194/171 194/222/171 193/221/171
f 166/194/172 163/192/172 191/220/172 194/222/172
