# Blender v3.1.2 OBJ File: ''
# www.blender.org
mtllib propeller.mtl
o lowPolyPlane1.002_lowPolyPlane1.006
v 6.009262 47.689125 -9.329342
v 6.009247 47.689125 9.329392
v 6.376099 13.367728 7.599523
v 6.376099 13.367730 -7.599512
v -1.102356 13.287787 7.599522
v -1.469208 47.609192 9.329393
v -1.469208 47.609192 -9.329342
v -1.102356 13.287789 -7.599513
v 5.832031 64.269531 6.863373
v 5.832031 64.269531 -6.863294
v -1.646423 64.189590 -6.863295
v -1.646423 64.189590 6.863372
v -24.098450 -0.257592 5.507551
v -24.140045 3.636611 3.894431
v -26.585587 -0.284180 -0.000001
v -6.970032 -0.074506 -18.279711
v -7.108154 12.850451 -12.925698
v 6.642578 12.997431 -12.925698
v 6.780716 0.072475 -18.279711
v -7.165390 18.204155 0.000011
v 6.585342 18.351128 0.000011
v -7.108154 12.850447 12.925712
v 6.642578 12.997427 12.925712
v -6.970016 -0.074519 18.279703
v 6.780716 0.072461 18.279703
v -6.831863 -12.999495 12.925691
v 6.918861 -12.852522 12.925690
v -6.774643 -18.353180 -0.000014
v 6.976082 -18.206200 -0.000015
v -6.831879 -12.999468 -12.925714
v 6.918854 -12.852495 -12.925714
v -18.636703 -0.199209 -10.836112
v -18.718597 7.462640 -7.662284
v -18.554794 -7.861060 -7.662293
v -18.520889 -11.034706 -0.000009
v -18.554794 -7.861070 7.662280
v -18.636703 -0.199213 10.836110
v -18.718597 7.462637 7.662292
v -18.752518 10.636284 0.000007
v -24.098450 -0.257590 -5.507555
v -24.140045 3.636613 -3.894427
v -24.056808 -4.151794 -3.894432
v -24.039566 -5.764832 -0.000006
v -24.056808 -4.151795 3.894424
v -24.157288 5.249641 0.000003
v 6.689011 8.652215 -8.580234
v 6.780716 0.072474 -12.134291
v 6.651016 12.206047 0.000006
v 6.689011 8.652205 8.580238
v 6.780716 0.072462 12.134281
v 6.872421 -8.507287 8.580224
v 6.910408 -12.061127 -0.000011
v 6.872421 -8.507285 -8.580244
v 26.870041 8.867921 -8.580236
v 26.961746 0.288172 -12.134291
v 26.832069 12.421761 0.000004
v 26.870049 8.867919 8.580235
v 26.961754 0.288168 12.134281
v 27.053459 -8.291581 8.580224
v 27.091431 -11.845428 -0.000011
v 27.053452 -8.291579 -8.580244
v 6.859100 -31.819063 -36.577347
v 6.686386 -15.661041 -45.906712
v 6.518967 0.001628 -15.316873
v 6.659653 -13.160380 -7.717365
v -0.959503 -0.078306 -15.316875
v -0.792099 -15.740982 -45.906712
v -0.619370 -31.899000 -36.577347
v -0.818817 -13.240321 -7.717369
v 6.797813 -26.086756 -59.033569
v 6.924873 -37.973740 -52.170254
v -0.553604 -38.053677 -52.170254
v -0.680649 -26.166689 -59.033569
v 6.686371 -15.661102 45.906704
v 6.859085 -31.819113 36.577335
v 6.659653 -13.160371 7.717369
v 6.518967 0.001623 15.316893
v -0.818817 -13.240312 7.717367
v -0.619385 -31.899038 36.577335
v -0.792114 -15.741032 45.906704
v -0.959503 -0.078311 15.316892
v 6.924866 -37.973793 52.170208
v 6.797806 -26.086843 59.033558
v -0.680649 -26.166780 59.033558
v -0.553619 -38.053730 52.170208
vt 0.941412 0.584584
vt 0.941412 0.584584
vt 0.935113 0.499146
vt 0.935113 0.499146
vt 0.931869 0.501220
vt 0.938167 0.586657
vt 0.938167 0.586657
vt 0.931869 0.501220
vt 0.944454 0.625858
vt 0.944454 0.625858
vt 0.941210 0.627931
vt 0.941210 0.627931
vt 0.919390 0.474531
vt 0.920105 0.484225
vt 0.918311 0.475221
vt 0.926821 0.469783
vt 0.929193 0.501957
vt 0.935159 0.498145
vt 0.932787 0.465970
vt 0.930176 0.515284
vt 0.936141 0.511472
vt 0.929193 0.501957
vt 0.935159 0.498145
vt 0.926821 0.469783
vt 0.932787 0.465970
vt 0.924449 0.437608
vt 0.930415 0.433796
vt 0.923467 0.424281
vt 0.929432 0.420468
vt 0.924449 0.437608
vt 0.930415 0.433796
vt 0.921760 0.473017
vt 0.923166 0.492090
vt 0.920354 0.453944
vt 0.919771 0.446044
vt 0.920354 0.453944
vt 0.921760 0.473017
vt 0.923166 0.492090
vt 0.923748 0.499990
vt 0.919390 0.474531
vt 0.920105 0.484225
vt 0.918676 0.464837
vt 0.918380 0.460822
vt 0.918676 0.464837
vt 0.920401 0.488241
vt 0.934361 0.487328
vt 0.932787 0.465970
vt 0.935013 0.496175
vt 0.934361 0.487328
vt 0.932787 0.465970
vt 0.931212 0.444612
vt 0.930560 0.435766
vt 0.931212 0.444612
vt 0.943116 0.481733
vt 0.941542 0.460375
vt 0.943769 0.490579
vt 0.943116 0.481733
vt 0.941542 0.460375
vt 0.939967 0.439017
vt 0.939315 0.430170
vt 0.939967 0.439017
vt 0.926821 0.386661
vt 0.929786 0.426884
vt 0.932660 0.465874
vt 0.930245 0.433109
vt 0.929416 0.467947
vt 0.926542 0.428957
vt 0.923576 0.388734
vt 0.927001 0.435182
vt 0.927873 0.400931
vt 0.925691 0.371340
vt 0.922447 0.373413
vt 0.924628 0.403004
vt 0.929786 0.426884
vt 0.926821 0.386661
vt 0.930245 0.433109
vt 0.932660 0.465874
vt 0.927001 0.435182
vt 0.923576 0.388735
vt 0.926542 0.428957
vt 0.929416 0.467947
vt 0.925691 0.371340
vt 0.927873 0.400931
vt 0.924628 0.403004
vt 0.922447 0.373414
vn 0.9999 0.0107 0.0000
vn -0.9999 -0.0107 0.0000
vn 0.0005 -0.0503 0.9987
vn -0.0107 0.9999 0.0000
vn -0.0016 0.1471 -0.9891
vn -0.0016 0.1471 0.9891
vn 0.0005 -0.0503 -0.9987
vn -0.9002 0.1585 0.4057
vn -0.0041 0.3827 -0.9239
vn -0.0099 0.9238 -0.3827
vn -0.0099 0.9238 0.3827
vn -0.0041 0.3827 0.9239
vn 0.0041 -0.3827 0.9239
vn 0.0099 -0.9238 0.3827
vn 0.0099 -0.9238 -0.3827
vn 0.0041 -0.3827 -0.9239
vn -0.5113 0.3242 -0.7959
vn -0.5042 -0.3351 -0.7959
vn -0.4992 -0.8013 -0.3297
vn -0.4992 -0.8013 0.3297
vn -0.5042 -0.3351 0.7959
vn -0.5113 0.3242 0.7959
vn -0.5163 0.7904 0.3297
vn -0.5163 0.7904 -0.3297
vn -0.6725 0.2771 -0.6863
vn -0.6664 -0.2914 -0.6863
vn -0.6621 -0.6934 -0.2843
vn -0.6621 -0.6934 0.2843
vn -0.6664 -0.2914 0.6863
vn -0.6725 0.2771 0.6863
vn -0.6768 0.6791 0.2843
vn -0.6768 0.6791 -0.2843
vn -0.8966 -0.1777 0.4057
vn -0.9002 0.1585 -0.4057
vn -0.8940 -0.4153 -0.1681
vn -0.0095 0.8900 -0.4558
vn 0.0053 -0.5000 -0.8660
vn 0.0099 -0.9301 0.3672
vn -0.0084 0.7830 -0.6220
vn 0.0090 -0.8397 0.5430
vn 0.0090 -0.8397 -0.5430
vn 0.0053 -0.5000 0.8660
vn -0.0084 0.7830 0.6220
vn 0.0099 -0.9301 -0.3672
vn -0.0095 0.8900 0.4558
vn -0.9027 0.3961 0.1681
vn -0.8940 -0.4153 0.1681
vn -0.8966 -0.1777 -0.4057
vn -0.9027 0.3961 -0.1681
usemtl MAT_Base
s 1
f 1/1/1 2/2/1 3/3/1 4/4/1
f 5/5/2 6/6/2 7/7/2 8/8/2
f 2/2/3 6/6/3 5/5/3 3/3/3
f 9/9/4 10/10/4 11/11/4 12/12/4
f 1/1/5 7/7/5 11/11/5 10/10/5
f 10/10/1 9/9/1 2/2/1 1/1/1
f 12/12/2 11/11/2 7/7/2 6/6/2
f 9/9/6 12/12/6 6/6/6 2/2/6
f 4/4/7 8/8/7 7/7/7 1/1/7
f 13/13/8 14/14/8 15/15/8
f 16/16/9 17/17/9 18/18/9 19/19/9
f 17/17/10 20/20/10 21/21/10 18/18/10
f 20/20/11 22/22/11 23/23/11 21/21/11
f 22/22/12 24/24/12 25/25/12 23/23/12
f 24/24/13 26/26/13 27/27/13 25/25/13
f 26/26/14 28/28/14 29/29/14 27/27/14
f 28/28/15 30/30/15 31/31/15 29/29/15
f 30/30/16 16/16/16 19/19/16 31/31/16
f 17/17/17 16/16/17 32/32/17 33/33/17
f 16/16/18 30/30/18 34/34/18 32/32/18
f 30/30/19 28/28/19 35/35/19 34/34/19
f 28/28/20 26/26/20 36/36/20 35/35/20
f 26/26/21 24/24/21 37/37/21 36/36/21
f 24/24/22 22/22/22 38/38/22 37/37/22
f 22/22/23 20/20/23 39/39/23 38/38/23
f 20/20/24 17/17/24 33/33/24 39/39/24
f 33/33/25 32/32/25 40/40/25 41/41/25
f 32/32/26 34/34/26 42/42/26 40/40/26
f 34/34/27 35/35/27 43/43/27 42/42/27
f 35/35/28 36/36/28 44/44/28 43/43/28
f 36/36/29 37/37/29 13/13/29 44/44/29
f 37/37/30 38/38/30 14/14/30 13/13/30
f 38/38/31 39/39/31 45/45/31 14/14/31
f 39/39/32 33/33/32 41/41/32 45/45/32
f 44/44/33 13/13/33 15/15/33
f 41/41/34 40/40/34 15/15/34
f 15/15/35 42/42/35 43/43/35
f 19/19/1 18/18/1 46/46/1 47/47/1
f 18/18/1 21/21/1 48/48/1 46/46/1
f 21/21/1 23/23/1 49/49/1 48/48/1
f 23/23/1 25/25/1 50/50/1 49/49/1
f 25/25/1 27/27/1 51/51/1 50/50/1
f 27/27/1 29/29/1 52/52/1 51/51/1
f 29/29/1 31/31/1 53/53/1 52/52/1
f 31/31/1 19/19/1 47/47/1 53/53/1
f 47/47/9 46/46/9 54/54/9 55/55/9
f 46/46/10 48/48/10 56/56/10 54/54/10
f 48/48/11 49/49/11 57/57/11 56/56/11
f 49/49/12 50/50/12 58/58/12 57/57/12
f 50/50/13 51/51/13 59/59/13 58/58/13
f 51/51/14 52/52/14 60/60/14 59/59/14
f 52/52/15 53/53/15 61/61/15 60/60/15
f 53/53/16 47/47/16 55/55/16 61/61/16
f 62/62/1 63/63/1 64/64/1 65/65/1
f 66/66/2 67/67/2 68/68/2 69/69/2
f 63/63/36 67/67/36 66/66/36 64/64/36
f 70/70/37 71/71/37 72/72/37 73/73/37
f 62/62/38 68/68/38 72/72/38 71/71/38
f 71/71/1 70/70/1 63/63/1 62/62/1
f 73/73/2 72/72/2 68/68/2 67/67/2
f 70/70/39 73/73/39 67/67/39 63/63/39
f 65/65/40 69/69/40 68/68/40 62/62/40
f 74/74/1 75/75/1 76/76/1 77/77/1
f 78/78/2 79/79/2 80/80/2 81/81/2
f 75/75/41 79/79/41 78/78/41 76/76/41
f 82/82/42 83/83/42 84/84/42 85/85/42
f 74/74/43 80/80/43 84/84/43 83/83/43
f 83/83/1 82/82/1 75/75/1 74/74/1
f 85/85/2 84/84/2 80/80/2 79/79/2
f 82/82/44 85/85/44 79/79/44 75/75/44
f 77/77/45 81/81/45 80/80/45 74/74/45
f 14/14/46 45/45/46 15/15/46
f 15/15/47 43/43/47 44/44/47
f 15/15/48 40/40/48 42/42/48
f 15/15/49 45/45/49 41/41/49
